<svg width="268" height="35" viewBox="0 0 268 35" fill="none" xmlns="http://www.w3.org/2000/svg">
<path d="M42.052 19.04L46 28H52.244V26.152H52.02C51.796 26.152 51.6 26.1333 51.432 26.096C51.264 26.04 51.1147 25.956 50.984 25.844C50.8533 25.732 50.732 25.5733 50.62 25.368L47.204 18.564L42.052 19.04ZM40.232 25.872V10.22H42.108C42.78 10.22 43.34 10.3693 43.788 10.668C44.236 10.948 44.572 11.3587 44.796 11.9C45.0387 12.4413 45.16 13.0853 45.16 13.832C45.16 14.6533 45.0387 15.3627 44.796 15.96C44.572 16.5387 44.2267 16.9867 43.76 17.304C43.312 17.6027 42.7147 17.752 41.968 17.752H39.644V19.852H42.472C42.6213 19.852 42.7707 19.852 42.92 19.852C43.0693 19.8333 43.2187 19.8147 43.368 19.796C43.5173 19.7773 43.648 19.7587 43.76 19.74C45.272 19.6467 46.5413 19.348 47.568 18.844C48.6133 18.34 49.3973 17.6587 49.92 16.8C50.4613 15.9413 50.732 14.952 50.732 13.832C50.732 12.6747 50.424 11.6667 49.808 10.808C49.2107 9.94933 48.3427 9.28667 47.204 8.82C46.0653 8.35333 44.6747 8.12 43.032 8.12H32.868V9.968H33.148C33.6333 9.968 34.0347 10.0333 34.352 10.164C34.6693 10.2947 34.828 10.5653 34.828 10.976V25.144C34.828 25.5547 34.6693 25.8253 34.352 25.956C34.0347 26.0867 33.6333 26.152 33.148 26.152H32.868V28H41.996V26.152H41.716C41.548 26.152 41.3707 26.152 41.184 26.152C41.016 26.1333 40.8573 26.1147 40.708 26.096C40.5587 26.0587 40.4373 26.0307 40.344 26.012C40.2693 25.9747 40.232 25.928 40.232 25.872ZM63.7645 28.28C62.2711 28.28 60.8991 28.0373 59.6485 27.552C58.3978 27.0667 57.3058 26.376 56.3725 25.48C55.4578 24.584 54.7391 23.5107 54.2165 22.26C53.7125 20.9907 53.4605 19.5907 53.4605 18.06C53.4605 16.5293 53.7125 15.1387 54.2165 13.888C54.7391 12.6373 55.4578 11.564 56.3725 10.668C57.3058 9.75333 58.3978 9.05333 59.6485 8.568C60.8991 8.08267 62.2711 7.84 63.7645 7.84C65.2578 7.84 66.6298 8.08267 67.8805 8.568C69.1311 9.05333 70.2138 9.75333 71.1285 10.668C72.0618 11.564 72.7805 12.6373 73.2845 13.888C73.7885 15.1387 74.0405 16.5293 74.0405 18.06C74.0405 19.5907 73.7885 20.9907 73.2845 22.26C72.7805 23.5107 72.0618 24.584 71.1285 25.48C70.2138 26.376 69.1311 27.0667 67.8805 27.552C66.6298 28.0373 65.2578 28.28 63.7645 28.28ZM63.7645 25.984C64.4551 25.984 65.0805 25.816 65.6405 25.48C66.2191 25.144 66.7138 24.64 67.1245 23.968C67.5351 23.2773 67.8431 22.4373 68.0485 21.448C68.2725 20.4587 68.3845 19.3293 68.3845 18.06C68.3845 16.7907 68.2725 15.6613 68.0485 14.672C67.8431 13.6827 67.5351 12.852 67.1245 12.18C66.7138 11.4893 66.2191 10.976 65.6405 10.64C65.0805 10.304 64.4551 10.136 63.7645 10.136C63.0738 10.136 62.4391 10.304 61.8605 10.64C61.3005 10.976 60.8151 11.4893 60.4045 12.18C59.9938 12.852 59.6765 13.6827 59.4525 14.672C59.2285 15.6613 59.1165 16.7907 59.1165 18.06C59.1165 19.3293 59.2285 20.4587 59.4525 21.448C59.6765 22.4373 59.9938 23.2773 60.4045 23.968C60.8151 24.64 61.3005 25.144 61.8605 25.48C62.4391 25.816 63.0738 25.984 63.7645 25.984ZM86.3791 10.164C85.6697 10.164 85.0164 10.3507 84.4191 10.724C83.8404 11.0973 83.3457 11.6293 82.9351 12.32C82.5244 12.992 82.2071 13.8227 81.9831 14.812C81.7777 15.7827 81.6751 16.8653 81.6751 18.06C81.6751 19.3107 81.7871 20.4213 82.0111 21.392C82.2351 22.3627 82.5524 23.1933 82.9631 23.884C83.3924 24.556 83.9244 25.0787 84.5591 25.452C85.1937 25.8067 85.9217 25.984 86.7431 25.984C87.6204 25.984 88.4044 25.76 89.0951 25.312C89.7857 24.8453 90.3551 24.2107 90.8031 23.408C91.2697 22.5867 91.6151 21.6533 91.8391 20.608L93.8551 21.42C93.5751 22.764 93.0991 23.9587 92.4271 25.004C91.7737 26.0307 90.9151 26.8333 89.8511 27.412C88.7871 27.9907 87.5177 28.28 86.0431 28.28C84.5684 28.28 83.2244 28.0373 82.0111 27.552C80.7977 27.0667 79.7431 26.376 78.8471 25.48C77.9511 24.5653 77.2511 23.4827 76.7471 22.232C76.2617 20.9813 76.0191 19.5907 76.0191 18.06C76.0191 16.5293 76.2711 15.1387 76.7751 13.888C77.2977 12.6373 77.9977 11.564 78.8751 10.668C79.7711 9.75333 80.7977 9.05333 81.9551 8.568C83.1124 8.08267 84.3444 7.84 85.6511 7.84C86.9764 7.84 88.0684 8.064 88.9271 8.512C89.8044 8.96 90.5044 9.58533 91.0271 10.388C91.5497 11.172 91.9697 12.0773 92.2871 13.104L90.8031 12.824L91.3351 8.12H93.5751V14.392H90.9711C90.7097 13.5333 90.3737 12.7867 89.9631 12.152C89.5524 11.5173 89.0577 11.032 88.4791 10.696C87.9004 10.3413 87.2004 10.164 86.3791 10.164ZM95.5946 28V26.152H95.8746C96.3599 26.152 96.7612 26.0867 97.0786 25.956C97.3959 25.8253 97.5546 25.5547 97.5546 25.144V10.976C97.5546 10.5653 97.3959 10.2947 97.0786 10.164C96.7612 10.0333 96.3599 9.968 95.8746 9.968H95.5946V8.12H105.227V9.968H104.947C104.629 9.968 104.312 9.97733 103.995 9.996C103.696 10.0147 103.444 10.0427 103.239 10.08C103.052 10.1173 102.959 10.1733 102.959 10.248V25.872C102.959 25.928 103.043 25.984 103.211 26.04C103.379 26.0773 103.584 26.1053 103.827 26.124C104.069 26.1427 104.312 26.152 104.555 26.152H104.779V28H95.5946ZM106.739 28V26.152H106.991C107.233 26.152 107.476 26.1427 107.719 26.124C107.961 26.1053 108.157 26.0773 108.307 26.04C108.475 25.984 108.559 25.928 108.559 25.872L103.715 18.564V17.836L110.379 10.22C110.379 10.1453 110.276 10.0893 110.071 10.052C109.865 10.0147 109.604 9.996 109.287 9.996C108.969 9.97733 108.671 9.968 108.391 9.968H108.083V8.12H115.279V9.968H114.747C114.429 9.968 114.149 9.996 113.907 10.052C113.683 10.108 113.468 10.2013 113.263 10.332C113.057 10.4627 112.843 10.6587 112.619 10.92L106.431 18.004L107.719 15.288L114.271 25.228C114.439 25.4707 114.597 25.6573 114.747 25.788C114.915 25.9187 115.101 26.012 115.307 26.068C115.512 26.124 115.755 26.152 116.035 26.152H116.315V28H106.739ZM133.762 21.644V28H117.606V26.152H117.886C118.372 26.152 118.773 26.0867 119.09 25.956C119.408 25.8253 119.566 25.5547 119.566 25.144V10.976C119.566 10.5653 119.408 10.2947 119.09 10.164C118.773 10.0333 118.372 9.968 117.886 9.968H117.606V8.12H133.006V13.776H130.682L130.458 11.48C130.44 11.144 130.309 10.892 130.066 10.724C129.842 10.5373 129.525 10.416 129.114 10.36C128.704 10.304 128.19 10.276 127.574 10.276H124.97V25.844H127.854C128.433 25.844 128.918 25.8347 129.31 25.816C129.702 25.7787 130.02 25.7133 130.262 25.62C130.524 25.5267 130.72 25.4053 130.85 25.256C131 25.088 131.084 24.8827 131.102 24.64L131.41 21.644H133.762ZM124.186 16.884C124.914 16.8467 125.624 16.8093 126.314 16.772C127.024 16.7347 127.724 16.6973 128.414 16.66C129.124 16.604 129.824 16.5667 130.514 16.548V19.124C129.824 19.068 129.124 19.0213 128.414 18.984C127.724 18.9467 127.024 18.9093 126.314 18.872C125.624 18.816 124.914 18.7787 124.186 18.76V16.884ZM141.93 25.144V10.248H141.062C140.39 10.248 139.83 10.276 139.382 10.332C138.953 10.388 138.626 10.5093 138.402 10.696C138.197 10.864 138.085 11.116 138.066 11.452L137.786 14.532H135.406V8.12H153.886V14.532H151.478L151.226 11.452C151.208 11.116 151.086 10.864 150.862 10.696C150.657 10.5093 150.33 10.388 149.882 10.332C149.453 10.276 148.893 10.248 148.202 10.248H147.334V25.144C147.334 25.5547 147.484 25.8253 147.782 25.956C148.1 26.0867 148.501 26.152 148.986 26.152H149.406V28H139.858V26.152H140.278C140.764 26.152 141.156 26.0867 141.454 25.956C141.772 25.8253 141.93 25.5547 141.93 25.144Z" fill="#2D2C2A"/>
<path d="M166.031 10.164C165.322 10.164 164.669 10.3507 164.071 10.724C163.493 11.0973 162.998 11.6293 162.587 12.32C162.177 12.992 161.859 13.8227 161.635 14.812C161.43 15.7827 161.327 16.8653 161.327 18.06C161.327 19.3107 161.439 20.4213 161.663 21.392C161.887 22.3627 162.205 23.1933 162.615 23.884C163.045 24.556 163.577 25.0787 164.211 25.452C164.846 25.8067 165.574 25.984 166.395 25.984C167.273 25.984 168.057 25.76 168.747 25.312C169.438 24.8453 170.007 24.2107 170.455 23.408C170.922 22.5867 171.267 21.6533 171.491 20.608L173.507 21.42C173.227 22.764 172.751 23.9587 172.079 25.004C171.426 26.0307 170.567 26.8333 169.503 27.412C168.439 27.9907 167.17 28.28 165.695 28.28C164.221 28.28 162.877 28.0373 161.663 27.552C160.45 27.0667 159.395 26.376 158.499 25.48C157.603 24.5653 156.903 23.4827 156.399 22.232C155.914 20.9813 155.671 19.5907 155.671 18.06C155.671 16.5293 155.923 15.1387 156.427 13.888C156.95 12.6373 157.65 11.564 158.527 10.668C159.423 9.75333 160.45 9.05333 161.607 8.568C162.765 8.08267 163.997 7.84 165.303 7.84C166.629 7.84 167.721 8.064 168.579 8.512C169.457 8.96 170.157 9.58533 170.679 10.388C171.202 11.172 171.622 12.0773 171.939 13.104L170.455 12.824L170.987 8.12H173.227V14.392H170.623C170.362 13.5333 170.026 12.7867 169.615 12.152C169.205 11.5173 168.71 11.032 168.131 10.696C167.553 10.3413 166.853 10.164 166.031 10.164ZM185.581 28.28C184.088 28.28 182.716 28.0373 181.465 27.552C180.214 27.0667 179.122 26.376 178.189 25.48C177.274 24.584 176.556 23.5107 176.033 22.26C175.529 20.9907 175.277 19.5907 175.277 18.06C175.277 16.5293 175.529 15.1387 176.033 13.888C176.556 12.6373 177.274 11.564 178.189 10.668C179.122 9.75333 180.214 9.05333 181.465 8.568C182.716 8.08267 184.088 7.84 185.581 7.84C187.074 7.84 188.446 8.08267 189.697 8.568C190.948 9.05333 192.03 9.75333 192.945 10.668C193.878 11.564 194.597 12.6373 195.101 13.888C195.605 15.1387 195.857 16.5293 195.857 18.06C195.857 19.5907 195.605 20.9907 195.101 22.26C194.597 23.5107 193.878 24.584 192.945 25.48C192.03 26.376 190.948 27.0667 189.697 27.552C188.446 28.0373 187.074 28.28 185.581 28.28ZM185.581 25.984C186.272 25.984 186.897 25.816 187.457 25.48C188.036 25.144 188.53 24.64 188.941 23.968C189.352 23.2773 189.66 22.4373 189.865 21.448C190.089 20.4587 190.201 19.3293 190.201 18.06C190.201 16.7907 190.089 15.6613 189.865 14.672C189.66 13.6827 189.352 12.852 188.941 12.18C188.53 11.4893 188.036 10.976 187.457 10.64C186.897 10.304 186.272 10.136 185.581 10.136C184.89 10.136 184.256 10.304 183.677 10.64C183.117 10.976 182.632 11.4893 182.221 12.18C181.81 12.852 181.493 13.6827 181.269 14.672C181.045 15.6613 180.933 16.7907 180.933 18.06C180.933 19.3293 181.045 20.4587 181.269 21.448C181.493 22.4373 181.81 23.2773 182.221 23.968C182.632 24.64 183.117 25.144 183.677 25.48C184.256 25.816 184.89 25.984 185.581 25.984ZM205.087 10.276V25.144C205.087 25.3867 205.143 25.5827 205.255 25.732C205.386 25.8627 205.545 25.956 205.731 26.012C205.937 26.068 206.151 26.1053 206.375 26.124C206.618 26.1427 206.851 26.152 207.075 26.152H207.551V28H197.723V26.152H198.003C198.489 26.152 198.89 26.0867 199.207 25.956C199.525 25.8253 199.683 25.5547 199.683 25.144V10.976C199.683 10.5653 199.525 10.2947 199.207 10.164C198.89 10.0333 198.489 9.968 198.003 9.968H197.723V8.12H213.263V13.776H210.939L210.715 11.48C210.678 11.144 210.547 10.892 210.323 10.724C210.099 10.5373 209.782 10.416 209.371 10.36C208.961 10.304 208.457 10.276 207.859 10.276H205.087ZM204.303 17.08C205.05 17.024 205.787 16.9867 206.515 16.968C207.243 16.9307 207.971 16.8933 208.699 16.856C209.427 16.8 210.146 16.7533 210.855 16.716V19.32C210.146 19.264 209.427 19.2173 208.699 19.18C207.971 19.1427 207.243 19.1053 206.515 19.068C205.787 19.012 205.05 18.9747 204.303 18.956V17.08ZM222.369 10.276V25.144C222.369 25.3867 222.425 25.5827 222.537 25.732C222.667 25.8627 222.826 25.956 223.013 26.012C223.218 26.068 223.433 26.1053 223.657 26.124C223.899 26.1427 224.133 26.152 224.357 26.152H224.833V28H215.005V26.152H215.285C215.77 26.152 216.171 26.0867 216.489 25.956C216.806 25.8253 216.965 25.5547 216.965 25.144V10.976C216.965 10.5653 216.806 10.2947 216.489 10.164C216.171 10.0333 215.77 9.968 215.285 9.968H215.005V8.12H230.545V13.776H228.221L227.997 11.48C227.959 11.144 227.829 10.892 227.605 10.724C227.381 10.5373 227.063 10.416 226.653 10.36C226.242 10.304 225.738 10.276 225.141 10.276H222.369ZM221.585 17.08C222.331 17.024 223.069 16.9867 223.797 16.968C224.525 16.9307 225.253 16.8933 225.981 16.856C226.709 16.8 227.427 16.7533 228.137 16.716V19.32C227.427 19.264 226.709 19.2173 225.981 19.18C225.253 19.1427 224.525 19.1053 223.797 19.068C223.069 19.012 222.331 18.9747 221.585 18.956V17.08ZM248.442 21.644V28H232.286V26.152H232.566C233.051 26.152 233.453 26.0867 233.77 25.956C234.087 25.8253 234.246 25.5547 234.246 25.144V10.976C234.246 10.5653 234.087 10.2947 233.77 10.164C233.453 10.0333 233.051 9.968 232.566 9.968H232.286V8.12H247.686V13.776H245.362L245.138 11.48C245.119 11.144 244.989 10.892 244.746 10.724C244.522 10.5373 244.205 10.416 243.794 10.36C243.383 10.304 242.87 10.276 242.254 10.276H239.65V25.844H242.534C243.113 25.844 243.598 25.8347 243.99 25.816C244.382 25.7787 244.699 25.7133 244.942 25.62C245.203 25.5267 245.399 25.4053 245.53 25.256C245.679 25.088 245.763 24.8827 245.782 24.64L246.09 21.644H248.442ZM238.866 16.884C239.594 16.8467 240.303 16.8093 240.994 16.772C241.703 16.7347 242.403 16.6973 243.094 16.66C243.803 16.604 244.503 16.5667 245.194 16.548V19.124C244.503 19.068 243.803 19.0213 243.094 18.984C242.403 18.9467 241.703 18.9093 240.994 18.872C240.303 18.816 239.594 18.7787 238.866 18.76V16.884ZM266.544 21.644V28H250.388V26.152H250.668C251.153 26.152 251.554 26.0867 251.872 25.956C252.189 25.8253 252.348 25.5547 252.348 25.144V10.976C252.348 10.5653 252.189 10.2947 251.872 10.164C251.554 10.0333 251.153 9.968 250.668 9.968H250.388V8.12H265.788V13.776H263.464L263.24 11.48C263.221 11.144 263.09 10.892 262.848 10.724C262.624 10.5373 262.306 10.416 261.896 10.36C261.485 10.304 260.972 10.276 260.356 10.276H257.752V25.844H260.636C261.214 25.844 261.7 25.8347 262.092 25.816C262.484 25.7787 262.801 25.7133 263.044 25.62C263.305 25.5267 263.501 25.4053 263.632 25.256C263.781 25.088 263.865 24.8827 263.884 24.64L264.192 21.644H266.544ZM256.968 16.884C257.696 16.8467 258.405 16.8093 259.096 16.772C259.805 16.7347 260.505 16.6973 261.196 16.66C261.905 16.604 262.605 16.5667 263.296 16.548V19.124C262.605 19.068 261.905 19.0213 261.196 18.984C260.505 18.9467 259.805 18.9093 259.096 18.872C258.405 18.816 257.696 18.7787 256.968 18.76V16.884Z" fill="#995000"/>
<path d="M8.00008 3.33334C7.64646 3.33334 7.30732 3.47382 7.05727 3.72387C6.80722 3.97392 6.66675 4.31305 6.66675 4.66668V7.33334C6.66675 7.68697 6.80722 8.0261 7.05727 8.27615C7.30732 8.5262 7.64646 8.66668 8.00008 8.66668C8.3537 8.66668 8.69284 8.5262 8.94289 8.27615C9.19294 8.0261 9.33341 7.68697 9.33341 7.33334V4.66668C9.33341 4.31305 9.19294 3.97392 8.94289 3.72387C8.69284 3.47382 8.3537 3.33334 8.00008 3.33334V3.33334Z" fill="#995000"/>
<path fill-rule="evenodd" clip-rule="evenodd" d="M17.3334 28.6667C19.224 28.6664 21.0535 27.9968 22.4976 26.7765C23.9417 25.5563 24.9071 23.8641 25.2227 22H25.3334C26.7479 22 28.1044 21.4381 29.1046 20.4379C30.1048 19.4377 30.6667 18.0812 30.6667 16.6667C30.6667 15.2522 30.1048 13.8956 29.1046 12.8954C28.1044 11.8952 26.7479 11.3333 25.3334 11.3333V10H1.33337V20.6667C1.33337 22.7884 2.17623 24.8232 3.67652 26.3235C5.17681 27.8238 7.21164 28.6667 9.33337 28.6667H17.3334ZM4.00004 12.6667V20.6667C4.00004 22.0812 4.56194 23.4377 5.56214 24.4379C6.56233 25.4381 7.91889 26 9.33337 26H17.3334C18.7479 26 20.1044 25.4381 21.1046 24.4379C22.1048 23.4377 22.6667 22.0812 22.6667 20.6667V12.6667H4.00004ZM28 16.6667C28 17.3739 27.7191 18.0522 27.219 18.5523C26.7189 19.0524 26.0406 19.3333 25.3334 19.3333V14C26.0406 14 26.7189 14.281 27.219 14.781C27.7191 15.2811 28 15.9594 28 16.6667Z" fill="#2D2C2A"/>
<path d="M12 4.66668C12 4.31305 12.1405 3.97392 12.3905 3.72387C12.6406 3.47382 12.9797 3.33334 13.3333 3.33334C13.687 3.33334 14.0261 3.47382 14.2761 3.72387C14.5262 3.97392 14.6667 4.31305 14.6667 4.66668V7.33334C14.6667 7.68697 14.5262 8.0261 14.2761 8.27615C14.0261 8.5262 13.687 8.66668 13.3333 8.66668C12.9797 8.66668 12.6406 8.5262 12.3905 8.27615C12.1405 8.0261 12 7.68697 12 7.33334V4.66668ZM18.6667 3.33334C18.313 3.33334 17.9739 3.47382 17.7239 3.72387C17.4738 3.97392 17.3333 4.31305 17.3333 4.66668V7.33334C17.3333 7.68697 17.4738 8.0261 17.7239 8.27615C17.9739 8.5262 18.313 8.66668 18.6667 8.66668C19.0203 8.66668 19.3594 8.5262 19.6095 8.27615C19.8595 8.0261 20 7.68697 20 7.33334V4.66668C20 4.31305 19.8595 3.97392 19.6095 3.72387C19.3594 3.47382 19.0203 3.33334 18.6667 3.33334V3.33334Z" fill="#995000"/>
<path d="M12.973 12.8649C12.973 12.8649 15.8919 14.1881 15.8919 19.6757C15.8919 21.2908 15.2173 23.2887 14.8541 24.2162H11.0919C10.7287 23.2887 10.0541 21.2908 10.0541 19.6757C10.0541 14.1881 12.973 12.8649 12.973 12.8649ZM14.2703 18.3784C14.2703 17.6649 13.6865 17.0811 12.973 17.0811C12.2595 17.0811 11.6757 17.6649 11.6757 18.3784C11.6757 19.0919 12.2595 19.6757 12.973 19.6757C13.6865 19.6757 14.2703 19.0919 14.2703 18.3784ZM10.1773 24.5535C9.86598 23.7557 9.19138 21.8487 9.09408 20.0973L8.36111 20.5838C7.99787 20.8303 7.78381 21.2324 7.78381 21.667V25.5135L10.1773 24.5535V24.5535ZM18.1622 25.5135V21.667C18.1622 21.2324 17.9481 20.8303 17.5849 20.5903L16.8519 20.1038C16.7546 21.8487 16.0735 23.7622 15.7687 24.56L18.1622 25.5135Z" fill="#995000"/>
</svg>
