<svg width="32" height="32" viewBox="0 0 32 32" fill="none" xmlns="http://www.w3.org/2000/svg">
<path d="M8.00008 3.33331C7.64646 3.33331 7.30732 3.47379 7.05727 3.72384C6.80722 3.97389 6.66675 4.31302 6.66675 4.66665V7.33331C6.66675 7.68693 6.80722 8.02607 7.05727 8.27612C7.30732 8.52617 7.64646 8.66665 8.00008 8.66665C8.3537 8.66665 8.69284 8.52617 8.94289 8.27612C9.19294 8.02607 9.33341 7.68693 9.33341 7.33331V4.66665C9.33341 4.31302 9.19294 3.97389 8.94289 3.72384C8.69284 3.47379 8.3537 3.33331 8.00008 3.33331V3.33331Z" fill="#995000"/>
<path fill-rule="evenodd" clip-rule="evenodd" d="M17.3334 28.6667C19.224 28.6664 21.0535 27.9968 22.4976 26.7765C23.9417 25.5563 24.9071 23.8641 25.2227 22H25.3334C26.7479 22 28.1044 21.4381 29.1046 20.4379C30.1048 19.4377 30.6667 18.0812 30.6667 16.6667C30.6667 15.2522 30.1048 13.8956 29.1046 12.8954C28.1044 11.8952 26.7479 11.3333 25.3334 11.3333V10H1.33337V20.6667C1.33337 22.7884 2.17623 24.8232 3.67652 26.3235C5.17681 27.8238 7.21164 28.6667 9.33337 28.6667H17.3334ZM4.00004 12.6667V20.6667C4.00004 22.0812 4.56194 23.4377 5.56214 24.4379C6.56233 25.4381 7.91889 26 9.33337 26H17.3334C18.7479 26 20.1044 25.4381 21.1046 24.4379C22.1048 23.4377 22.6667 22.0812 22.6667 20.6667V12.6667H4.00004ZM28 16.6667C28 17.3739 27.7191 18.0522 27.219 18.5523C26.7189 19.0524 26.0406 19.3333 25.3334 19.3333V14C26.0406 14 26.7189 14.281 27.219 14.781C27.7191 15.2811 28 15.9594 28 16.6667Z" fill="#FED7AA"/>
<path d="M12 4.66665C12 4.31302 12.1405 3.97389 12.3905 3.72384C12.6406 3.47379 12.9797 3.33331 13.3333 3.33331C13.687 3.33331 14.0261 3.47379 14.2761 3.72384C14.5262 3.97389 14.6667 4.31302 14.6667 4.66665V7.33331C14.6667 7.68693 14.5262 8.02607 14.2761 8.27612C14.0261 8.52617 13.687 8.66665 13.3333 8.66665C12.9797 8.66665 12.6406 8.52617 12.3905 8.27612C12.1405 8.02607 12 7.68693 12 7.33331V4.66665ZM18.6667 3.33331C18.313 3.33331 17.9739 3.47379 17.7239 3.72384C17.4738 3.97389 17.3333 4.31302 17.3333 4.66665V7.33331C17.3333 7.68693 17.4738 8.02607 17.7239 8.27612C17.9739 8.52617 18.313 8.66665 18.6667 8.66665C19.0203 8.66665 19.3594 8.52617 19.6095 8.27612C19.8595 8.02607 20 7.68693 20 7.33331V4.66665C20 4.31302 19.8595 3.97389 19.6095 3.72384C19.3594 3.47379 19.0203 3.33331 18.6667 3.33331V3.33331Z" fill="#995000"/>
<path d="M12.973 12.8649C12.973 12.8649 15.8919 14.1881 15.8919 19.6757C15.8919 21.2908 15.2173 23.2887 14.8541 24.2162H11.0919C10.7287 23.2887 10.0541 21.2908 10.0541 19.6757C10.0541 14.1881 12.973 12.8649 12.973 12.8649ZM14.2703 18.3784C14.2703 17.6649 13.6865 17.0811 12.973 17.0811C12.2595 17.0811 11.6757 17.6649 11.6757 18.3784C11.6757 19.0919 12.2595 19.6757 12.973 19.6757C13.6865 19.6757 14.2703 19.0919 14.2703 18.3784ZM10.1773 24.5535C9.86598 23.7557 9.19138 21.8487 9.09408 20.0973L8.36111 20.5838C7.99787 20.8303 7.78381 21.2324 7.78381 21.667V25.5135L10.1773 24.5535V24.5535ZM18.1622 25.5135V21.667C18.1622 21.2324 17.9481 20.8303 17.5849 20.5903L16.8519 20.1038C16.7546 21.8487 16.0735 23.7622 15.7687 24.56L18.1622 25.5135Z" fill="#995000"/>
</svg>
